<svg width="24" height="24" viewBox="0 0 24 24" fill="none" xmlns="http://www.w3.org/2000/svg">
<path d="M12.082 0.924805C6.01186 0.925066 1.09108 5.84683 1.09082 11.917C1.09108 17.9872 6.01186 22.9079 12.082 22.9082C18.1522 22.9079 23.074 17.9872 23.0742 11.917C23.074 5.84683 18.1522 0.925066 12.082 0.924805ZM18.1768 11.4756C18.2936 11.5927 18.3593 11.7516 18.3594 11.917C18.3594 12.0825 18.2937 12.2422 18.1768 12.3594L13.2402 17.2959L12.7979 16.8535L12.3555 16.4121L16.2256 12.542H7.52734V11.292H16.2256L12.3555 7.42285L12.7979 6.98047L13.2402 6.53906L18.1768 11.4756Z" fill="black"/>
</svg>
